<svg height="511pt" viewBox="-25 0 511 511.99988" width="511pt" xmlns="http://www.w3.org/2000/svg"><path d="m459.335938 80.96875c-4.289063-16.027344-13.136719-30.492188-25.582032-41.832031-3.0625-2.792969-7.804687-2.570313-10.59375.488281-2.792968 3.0625-2.570312 7.808594.492188 10.597656 10.316406 9.402344 17.648437 21.378906 21.195312 34.625 9.089844 33.9375-8.039062 69.882813-40.734375 87.839844l-38.460937-143.527344c11.597656-.246094 23.105468 1.78125 33.707031 5.980469.910156.359375 1.839844.527344 2.761719.527344 2.984375 0 5.808594-1.792969 6.976562-4.738281 1.523438-3.851563-.363281-8.210938-4.210937-9.734376-13.695313-5.425781-28.652344-7.761718-43.59375-6.867187-4.988281-10.707031-17.121094-16.640625-28.917969-13.480469-12.332031 3.304688-20.007812 15.398438-18.101562 27.742188-19.992188 11.714844-35.378907 29.839844-43.035157 50.765625l-226.117187 64.691406c-11.734375 3.355469-18.707032 15.671875-15.546875 27.453125l4.214843 15.730469-8.820312 2.363281c-14.40625 3.863281-24.46875 16.972656-24.46875 31.882812v174.707032c.007812 4.136718 3.363281 7.488281 7.5 7.488281 4.140625 0 7.5-3.355469 7.5-7.5v-174.695313c0-8.132812 5.488281-15.285156 13.351562-17.390624l8.824219-2.363282 4.210938 15.726563c2.679687 9.988281 11.855469 16.667969 21.804687 16.667969 1.78125 0 3.589844-.214844 5.390625-.664063l34.394531-8.597656 13.238282 30.4375c2.839844 6.550781 9.144531 10.539062 15.972656 10.539062 3.429688 0 5.507812-.941406 8.421875-1.632812v32.292969c0 12.40625 10.09375 22.5 22.5 22.5h2.386719v26.777343c0 4.140625 3.359375 7.5 7.5 7.5 4.144531 0 7.5-3.359375 7.5-7.5v-26.777343h25.046875v185.507812c0 4.140625 3.359375 7.5 7.5 7.5s7.5-3.359375 7.5-7.5v-185.507812h2.386719c12.40625 0 22.5-10.09375 22.5-22.5v-56.910157c0-1.148437-.039063-2.296875-.113282-3.4375l10.246094-2.742187c8.300781-2.222656 13.824219-10.339844 12.851562-18.882813l-3.433593-30.160156 31.757812-7.941406c17.101563 14.296875 39.488281 22.300781 62.65625 22.449219 3.734375 9.621093 13.050781 15.824218 23.136719 15.824218 2.121094 0 4.273438-.273437 6.417969-.847656 6.402343-1.71875 11.75-5.824219 15.066406-11.5625 2.582031-4.476562 3.6875-9.527344 3.234375-14.570312 40.679688-20.328126 62.90625-64.480469 51.585938-106.742188zm-141.140626-37.171875 37.496094 139.933594c-18.449218-1.019531-36.015625-7.839844-49.457031-19.347657l-5.746094-21.441406-15.445312-57.648437c5.902343-16.707031 17.691406-31.390625 33.152343-41.496094zm-87.265624 252.695313c0 4.136718-3.367188 7.5-7.5 7.5h-59.820313c-4.136719 0-7.5-3.363282-7.5-7.5v-41.863282c.003906-.128906.003906-.261718 0-.394531v-13.914063c0-20.691406 16.492187-37.800781 36.765625-38.140624 10.136719-.199219 19.664062 3.640624 26.871094 10.730468 5.363281 5.273438 8.933594 11.863282 10.410156 19.050782.015625.078124.03125.160156.050781.238281.476563 2.40625.722657 4.875.722657 7.382812zm21.253906-77.578126-9.460938 2.53125c-2.632812-7.160156-6.847656-13.710937-12.457031-19.230468-10.097656-9.929688-23.484375-15.269532-37.640625-15.03125-28.40625.472656-51.515625 24.3125-51.515625 53.140625v8.347656l-7.695313 2.0625c-1.207031.324219-2.445312-.269531-2.945312-1.417969l-15.667969-36.027344c-.066406-.167968-.140625-.335937-.21875-.503906l-12.753906-29.324218c-.394531-.90625-.144531-1.6875.039063-2.070313.1875-.382813.644531-1.070313 1.605468-1.328125l139.300782-37.324219c.957031-.253906 1.6875.105469 2.039062.347657.355469.238281.964844.789062 1.078125 1.78125l3.914063 34.398437c.011718.171875.035156.339844.058593.511719l4.148438 36.441406c.136719 1.21875-.648438 2.378906-1.828125 2.695312zm11.585937-49.589843-2.976562-26.152344c-.574219-5.066406-3.324219-9.621094-7.542969-12.488281-4.21875-2.871094-9.460938-3.75-14.367188-2.429688l-139.289062 37.320313c-4.929688 1.320312-9.023438 4.710937-11.238281 9.304687-2.210938 4.59375-2.316407 9.902344-.28125 14.570313l9.332031 21.460937-31.960938 7.992188c-3.949218.984375-8.015624-1.410156-9.070312-5.335938l-6.136719-22.902344c-.003906-.023437-.007812-.046874-.015625-.070312-.003906-.019531-.011718-.042969-.019531-.066406l-6.136719-22.910156c-1.054687-3.925782 1.269532-8.03125 5.179688-9.148438l222.796875-63.742188 18.210937 67.976563zm121.796875 30.027343c-2.53125.679688-5.175781.332032-7.449218-.980468-2.269532-1.308594-3.894532-3.425782-4.570313-5.960938l-.75-2.800781c-.050781-.21875-.109375-.4375-.175781-.648437l-43.300782-161.601563c-1.402343-5.230469 1.710938-10.621094 6.9375-12.023437 5.230469-1.402344 10.621094 1.714843 12.023438 6.941406l.449219 1.683594c.046875.214843.101562.421874.167969.625l43.605468 162.746093c1.402344 5.226563-1.710937 10.617188-6.9375 12.019531zm0 0"/><path d="m173.496094 369.367188c-4.140625 0-7.5 3.359374-7.5 7.5v127.632812c0 4.140625 3.359375 7.5 7.5 7.5s7.5-3.359375 7.5-7.5v-127.632812c0-4.140626-3.359375-7.5-7.5-7.5zm0 0"/><path d="m193.519531 215.511719c-13.273437 0-24.074219 10.796875-24.074219 24.070312 0 13.273438 10.800782 24.074219 24.074219 24.074219 13.273438 0 24.074219-10.796875 24.074219-24.074219 0-13.273437-10.800781-24.070312-24.074219-24.070312zm0 33.144531c-5.003906 0-9.074219-4.070312-9.074219-9.074219 0-5.003906 4.070313-9.070312 9.074219-9.070312 5.003907 0 9.074219 4.066406 9.074219 9.070312 0 5.003907-4.070312 9.074219-9.074219 9.074219zm0 0"/></svg>